# Created by FreeCAD <http://www.freecadweb.org>
v -5.000000 0.000000 0.000000
v 5.000000 0.000000 0.000000
v 5.000000 0.000000 5.000000
v -5.000000 0.000000 5.000000
v -5.000000 36.074947 0.000000
v -5.000000 36.074947 5.000000
v -9.000000 36.074947 0.000000
v -9.000000 36.074947 5.000000
v 0.000000 45.074947 5.000000
v 0.000000 45.074947 0.000000
v 9.000000 36.074947 0.000000
v 9.000000 36.074947 5.000000
v 5.000000 36.074947 0.000000
v 5.000000 36.074947 5.000000
vn 0.000000 -1.000000 0.000000
vn 0.000000 -1.000000 0.000000
vn -1.000000 0.000000 0.000000
vn -1.000000 0.000000 0.000000
vn 0.000000 -1.000000 0.000000
vn 0.000000 -1.000000 0.000000
vn -0.707107 0.707107 0.000000
vn -0.707107 0.707107 0.000000
vn 0.707107 0.707107 -0.000000
vn 0.707107 0.707107 0.000000
vn 0.000000 -1.000000 0.000000
vn 0.000000 -1.000000 0.000000
vn 1.000000 0.000000 0.000000
vn 1.000000 -0.000000 0.000000
vn 0.000000 0.000000 -1.000000
vn 0.000000 0.000000 -1.000000
vn 0.000000 0.000000 -1.000000
vn 0.000000 -0.000000 -1.000000
vn 0.000000 0.000000 -1.000000
vn 0.000000 0.000000 1.000000
vn 0.000000 0.000000 1.000000
vn 0.000000 0.000000 1.000000
vn 0.000000 0.000000 1.000000
vn 0.000000 0.000000 1.000000
f 1//1 2//1 3//1
f 1//2 3//2 4//2
f 5//3 1//3 4//3
f 5//4 4//4 6//4
f 7//5 5//5 6//5
f 7//6 6//6 8//6
f 9//7 7//7 8//7
f 10//8 7//8 9//8
f 11//9 10//9 12//9
f 12//10 10//10 9//10
f 13//11 11//11 14//11
f 14//12 11//12 12//12
f 2//13 13//13 3//13
f 3//14 13//14 14//14
f 5//15 2//15 1//15
f 5//16 13//16 2//16
f 10//17 11//17 13//17
f 10//18 13//18 5//18
f 7//19 10//19 5//19
f 3//20 6//20 4//20
f 14//21 6//21 3//21
f 12//22 9//22 14//22
f 14//23 9//23 6//23
f 9//24 8//24 6//24
