# Created by FreeCAD <http://www.freecadweb.org>
v 0.500000 0.000000 0.000000
v 0.490393 0.000000 0.097545
v 0.500000 -0.500000 0.000000
v 0.490393 -0.500000 0.097545
v 0.461940 0.000000 0.191342
v 0.461940 -0.500000 0.191342
v 0.415735 0.000000 0.277785
v 0.415735 -0.500000 0.277785
v 0.353553 0.000000 0.353553
v 0.353553 -0.500000 0.353553
v 0.277785 0.000000 0.415735
v 0.277785 -0.500000 0.415735
v 0.191342 0.000000 0.461940
v 0.191342 -0.500000 0.461940
v 0.097545 0.000000 0.490393
v 0.097545 -0.500000 0.490393
v 0.000000 0.000000 0.500000
v 0.000000 -0.500000 0.500000
v -0.097545 -0.500000 0.490393
v -0.097545 0.000000 0.490393
v -0.191342 0.000000 0.461940
v -0.191342 -0.500000 0.461940
v -0.277785 -0.500000 0.415735
v -0.277785 0.000000 0.415735
v -0.353553 0.000000 0.353553
v -0.353553 -0.500000 0.353553
v -0.415735 0.000000 0.277785
v -0.415735 -0.500000 0.277785
v -0.461940 0.000000 0.191342
v -0.461940 -0.500000 0.191342
v -0.490393 0.000000 0.097545
v -0.490393 -0.500000 0.097545
v -0.500000 -0.000000 -0.000000
v -0.500000 -0.500000 0.000000
v -0.490393 -0.000000 -0.097545
v -0.490393 -0.500000 -0.097545
v -0.461940 -0.000000 -0.191342
v -0.461940 -0.500000 -0.191342
v -0.415735 -0.000000 -0.277785
v -0.415735 -0.500000 -0.277785
v -0.353553 -0.000000 -0.353553
v -0.353553 -0.500000 -0.353553
v -0.277785 -0.500000 -0.415735
v -0.277785 -0.000000 -0.415735
v -0.191342 -0.000000 -0.461940
v -0.191342 -0.500000 -0.461940
v -0.097545 -0.000000 -0.490393
v -0.097545 -0.500000 -0.490393
v 0.000000 -0.000000 -0.500000
v 0.000000 -0.500000 -0.500000
v 0.097545 -0.000000 -0.490393
v 0.097545 -0.500000 -0.490393
v 0.191342 -0.500000 -0.461940
v 0.191342 -0.000000 -0.461940
v 0.277785 -0.000000 -0.415735
v 0.277785 -0.500000 -0.415735
v 0.353553 -0.500000 -0.353553
v 0.353553 -0.000000 -0.353553
v 0.415735 -0.500000 -0.277785
v 0.415735 -0.000000 -0.277785
v 0.461940 -0.000000 -0.191342
v 0.461940 -0.500000 -0.191342
v 0.490393 -0.000000 -0.097545
v 0.490393 -0.500000 -0.097545
v 0.500000 0.500000 -0.000000
v 0.490393 0.500000 0.097545
v 0.461940 0.500000 0.191342
v 0.415735 0.500000 0.277785
v 0.353553 0.500000 0.353553
v 0.277785 0.500000 0.415735
v 0.191342 0.500000 0.461940
v 0.097545 0.500000 0.490393
v 0.000000 0.500000 0.500000
v -0.097545 0.500000 0.490393
v -0.191342 0.500000 0.461940
v -0.277785 0.500000 0.415735
v -0.353553 0.500000 0.353553
v -0.415735 0.500000 0.277785
v -0.461940 0.500000 0.191342
v -0.490393 0.500000 0.097545
v -0.500000 0.500000 -0.000000
v -0.490393 0.500000 -0.097545
v -0.461940 0.500000 -0.191342
v -0.415735 0.500000 -0.277785
v -0.353553 0.500000 -0.353553
v -0.277785 0.500000 -0.415735
v -0.191342 0.500000 -0.461940
v -0.097545 0.500000 -0.490393
v 0.000000 0.500000 -0.500000
v 0.097545 0.500000 -0.490393
v 0.191342 0.500000 -0.461940
v 0.277785 0.500000 -0.415735
v 0.353553 0.500000 -0.353553
v 0.415735 0.500000 -0.277785
v 0.461940 0.500000 -0.191342
v 0.490393 0.500000 -0.097545
v -0.415735 -0.500000 -0.277785
v -0.490393 -0.500000 -0.097545
v -0.461940 -0.500000 -0.191342
v -0.191342 -0.500000 -0.461940
v -0.277785 -0.500000 -0.415735
v 0.000000 -0.500000 -0.500000
v -0.097545 -0.500000 -0.490393
v 0.415735 -0.500000 -0.277785
v 0.461940 -0.500000 -0.191342
v 0.490393 -0.500000 -0.097545
v 0.500000 -0.500000 0.000000
v 0.277785 -0.500000 -0.415735
v 0.097545 -0.500000 -0.490393
v 0.191342 -0.500000 -0.461940
v 0.490393 -0.500000 0.097545
v 0.461940 -0.500000 0.191342
v 0.415735 -0.500000 0.277785
v 0.353553 -0.500000 0.353553
v 0.277785 -0.500000 0.415735
v 0.191342 -0.500000 0.461940
v 0.097545 -0.500000 0.490393
v 0.000000 -0.500000 0.500000
v -0.097545 -0.500000 0.490393
v -0.191342 -0.500000 0.461940
v -0.277785 -0.500000 0.415735
v -0.353553 -0.500000 0.353553
v -0.415735 -0.500000 0.277785
v -0.461940 -0.500000 0.191342
v -0.490393 -0.500000 0.097545
v -0.500000 -0.500000 0.000000
v 0.500000 0.500000 -0.000000
vn 0.995185 0.000000 0.098017
vn 0.995185 0.000000 0.098017
vn 0.956940 0.000000 0.290285
vn 0.956940 0.000000 0.290285
vn 0.881921 0.000000 0.471397
vn 0.881921 0.000000 0.471397
vn 0.773010 0.000000 0.634393
vn 0.773010 0.000000 0.634393
vn 0.634393 0.000000 0.773010
vn 0.634393 0.000000 0.773010
vn 0.471397 0.000000 0.881921
vn 0.471397 0.000000 0.881921
vn 0.290285 0.000000 0.956940
vn 0.290285 0.000000 0.956940
vn 0.098017 0.000000 0.995185
vn 0.098017 0.000000 0.995185
vn -0.098017 0.000000 0.995185
vn -0.098017 0.000000 0.995185
vn -0.290285 0.000000 0.956940
vn -0.290285 0.000000 0.956940
vn -0.471397 0.000000 0.881921
vn -0.471397 0.000000 0.881921
vn -0.634393 0.000000 0.773010
vn -0.634393 0.000000 0.773010
vn -0.773010 0.000000 0.634393
vn -0.773010 0.000000 0.634393
vn -0.881921 0.000000 0.471397
vn -0.881921 0.000000 0.471397
vn -0.956940 0.000000 0.290285
vn -0.956940 0.000000 0.290285
vn -0.995185 0.000000 0.098017
vn -0.995185 0.000000 0.098017
vn -0.995185 0.000000 -0.098017
vn -0.995185 -0.000000 -0.098017
vn -0.956940 0.000000 -0.290285
vn -0.956940 -0.000000 -0.290285
vn -0.881921 0.000000 -0.471397
vn -0.881921 -0.000000 -0.471397
vn -0.773010 0.000000 -0.634393
vn -0.634393 0.000000 -0.773010
vn -0.773010 -0.000000 -0.634393
vn -0.634393 0.000000 -0.773010
vn -0.471397 0.000000 -0.881921
vn -0.471397 -0.000000 -0.881921
vn -0.290285 0.000000 -0.956940
vn -0.290285 -0.000000 -0.956940
vn -0.098017 0.000000 -0.995185
vn -0.098017 -0.000000 -0.995185
vn 0.098017 0.000000 -0.995185
vn 0.290285 0.000000 -0.956940
vn 0.098017 0.000000 -0.995185
vn 0.290285 0.000000 -0.956940
vn 0.471397 0.000000 -0.881921
vn 0.634393 0.000000 -0.773010
vn 0.471397 0.000000 -0.881921
vn 0.773010 0.000000 -0.634393
vn 0.634393 0.000000 -0.773010
vn 0.773010 0.000000 -0.634393
vn 0.881921 0.000000 -0.471397
vn 0.881921 0.000000 -0.471397
vn 0.956940 0.000000 -0.290285
vn 0.956940 0.000000 -0.290285
vn 0.995185 0.000000 -0.098017
vn 0.995185 0.000000 -0.098017
vn 0.995185 0.000000 0.098017
vn 0.995185 -0.000000 0.098017
vn 0.956940 -0.000000 0.290285
vn 0.956940 0.000000 0.290285
vn 0.881921 -0.000000 0.471397
vn 0.881921 0.000000 0.471397
vn 0.773010 -0.000000 0.634393
vn 0.634393 -0.000000 0.773010
vn 0.773010 0.000000 0.634393
vn 0.634393 -0.000000 0.773010
vn 0.471397 -0.000000 0.881921
vn 0.471397 0.000000 0.881921
vn 0.290285 -0.000000 0.956940
vn 0.290285 0.000000 0.956940
vn 0.098017 0.000000 0.995185
vn 0.098017 -0.000000 0.995185
vn -0.098017 0.000000 0.995185
vn -0.098017 0.000000 0.995185
vn -0.290285 0.000000 0.956940
vn -0.290285 0.000000 0.956940
vn -0.471397 0.000000 0.881921
vn -0.471397 0.000000 0.881921
vn -0.634393 0.000000 0.773010
vn -0.634393 0.000000 0.773010
vn -0.773010 0.000000 0.634393
vn -0.881921 0.000000 0.471397
vn -0.773010 0.000000 0.634393
vn -0.881921 0.000000 0.471397
vn -0.956940 0.000000 0.290285
vn -0.956940 0.000000 0.290285
vn -0.995185 0.000000 0.098017
vn -0.995185 0.000000 0.098017
vn -0.995185 0.000000 -0.098017
vn -0.995185 0.000000 -0.098017
vn -0.956940 0.000000 -0.290285
vn -0.956940 0.000000 -0.290285
vn -0.881921 0.000000 -0.471397
vn -0.881921 0.000000 -0.471397
vn -0.773010 0.000000 -0.634393
vn -0.773010 0.000000 -0.634393
vn -0.634393 0.000000 -0.773010
vn -0.471397 0.000000 -0.881921
vn -0.634393 0.000000 -0.773010
vn -0.471397 0.000000 -0.881921
vn -0.290285 0.000000 -0.956940
vn -0.290285 0.000000 -0.956940
vn -0.098017 0.000000 -0.995185
vn -0.098017 0.000000 -0.995185
vn 0.098017 0.000000 -0.995185
vn 0.290285 0.000000 -0.956940
vn 0.098017 0.000000 -0.995185
vn 0.290285 0.000000 -0.956940
vn 0.471397 0.000000 -0.881921
vn 0.471397 0.000000 -0.881921
vn 0.634393 0.000000 -0.773010
vn 0.634393 0.000000 -0.773010
vn 0.773010 0.000000 -0.634393
vn 0.773010 0.000000 -0.634393
vn 0.881921 0.000000 -0.471397
vn 0.881921 0.000000 -0.471397
vn 0.956940 0.000000 -0.290285
vn 0.956940 0.000000 -0.290285
vn 0.995185 -0.000000 -0.098017
vn 0.995185 0.000000 -0.098017
vn 0.000000 -1.000000 0.000000
vn 0.000000 -1.000000 0.000000
vn 0.000000 -1.000000 0.000000
vn 0.000000 -1.000000 0.000000
vn 0.000000 -1.000000 0.000000
vn 0.000000 -1.000000 0.000000
vn 0.000000 -1.000000 0.000000
vn 0.000000 -1.000000 0.000000
vn 0.000000 -1.000000 0.000000
vn 0.000000 -1.000000 0.000000
vn 0.000000 -1.000000 0.000000
vn 0.000000 -1.000000 0.000000
vn 0.000000 -1.000000 0.000000
vn 0.000000 -1.000000 0.000000
vn 0.000000 -1.000000 0.000000
vn 0.000000 -1.000000 0.000000
vn 0.000000 -1.000000 0.000000
vn 0.000000 -1.000000 0.000000
vn 0.000000 -1.000000 0.000000
vn 0.000000 -1.000000 0.000000
vn 0.000000 -1.000000 0.000000
vn 0.000000 -1.000000 0.000000
vn 0.000000 -1.000000 0.000000
vn 0.000000 -1.000000 0.000000
vn 0.000000 -1.000000 0.000000
vn 0.000000 -1.000000 0.000000
vn -0.000000 -1.000000 0.000000
vn 0.000000 -1.000000 0.000000
vn 0.000000 -1.000000 0.000000
vn 0.000000 -1.000000 0.000000
vn 0.000000 1.000000 0.000000
vn 0.000000 1.000000 0.000000
vn 0.000000 1.000000 0.000000
vn 0.000000 1.000000 0.000000
vn 0.000000 1.000000 0.000000
vn 0.000000 1.000000 0.000000
vn 0.000000 1.000000 0.000000
vn 0.000000 1.000000 0.000000
vn -0.000000 1.000000 0.000000
vn 0.000000 1.000000 0.000000
vn 0.000000 1.000000 0.000000
vn 0.000000 1.000000 0.000000
vn 0.000000 1.000000 0.000000
vn 0.000000 1.000000 0.000000
vn 0.000000 1.000000 0.000000
vn 0.000000 1.000000 0.000000
vn 0.000000 1.000000 0.000000
vn 0.000000 1.000000 0.000000
vn 0.000000 1.000000 0.000000
vn 0.000000 1.000000 0.000000
vn 0.000000 1.000000 0.000000
vn 0.000000 1.000000 0.000000
vn 0.000000 1.000000 0.000000
vn 0.000000 1.000000 0.000000
vn 0.000000 1.000000 -0.000000
vn 0.000000 1.000000 -0.000000
vn 0.000000 1.000000 -0.000000
vn 0.000000 1.000000 0.000000
vn 0.000000 1.000000 0.000000
vn -0.000000 1.000000 0.000000
f 1//1 2//1 3//1
f 3//2 2//2 4//2
f 4//3 5//3 6//3
f 2//4 5//4 4//4
f 6//5 7//5 8//5
f 5//6 7//6 6//6
f 8//7 9//7 10//7
f 7//8 9//8 8//8
f 10//9 11//9 12//9
f 9//10 11//10 10//10
f 12//11 13//11 14//11
f 11//12 13//12 12//12
f 14//13 15//13 16//13
f 13//14 15//14 14//14
f 15//15 17//15 16//15
f 16//16 17//16 18//16
f 18//17 17//17 19//17
f 17//18 20//18 19//18
f 20//19 21//19 19//19
f 19//20 21//20 22//20
f 22//21 21//21 23//21
f 21//22 24//22 23//22
f 23//23 25//23 26//23
f 24//24 25//24 23//24
f 26//25 27//25 28//25
f 25//26 27//26 26//26
f 28//27 29//27 30//27
f 27//28 29//28 28//28
f 30//29 31//29 32//29
f 29//30 31//30 30//30
f 32//31 33//31 34//31
f 31//32 33//32 32//32
f 34//33 35//33 36//33
f 33//34 35//34 34//34
f 36//35 37//35 38//35
f 35//36 37//36 36//36
f 38//37 39//37 40//37
f 37//38 39//38 38//38
f 40//39 41//39 42//39
f 42//40 41//40 43//40
f 39//41 41//41 40//41
f 41//42 44//42 43//42
f 43//43 45//43 46//43
f 44//44 45//44 43//44
f 46//45 47//45 48//45
f 45//46 47//46 46//46
f 48//47 49//47 50//47
f 47//48 49//48 48//48
f 50//49 51//49 52//49
f 52//50 51//50 53//50
f 49//51 51//51 50//51
f 51//52 54//52 53//52
f 53//53 55//53 56//53
f 56//54 55//54 57//54
f 54//55 55//55 53//55
f 57//56 58//56 59//56
f 55//57 58//57 57//57
f 58//58 60//58 59//58
f 59//59 61//59 62//59
f 60//60 61//60 59//60
f 62//61 63//61 64//61
f 61//62 63//62 62//62
f 64//63 1//63 3//63
f 63//64 1//64 64//64
f 2//65 1//65 65//65
f 2//66 65//66 66//66
f 5//67 66//67 67//67
f 5//68 2//68 66//68
f 7//69 67//69 68//69
f 7//70 5//70 67//70
f 9//71 68//71 69//71
f 9//72 69//72 70//72
f 9//73 7//73 68//73
f 11//74 9//74 70//74
f 13//75 70//75 71//75
f 13//76 11//76 70//76
f 15//77 71//77 72//77
f 15//78 13//78 71//78
f 17//79 15//79 72//79
f 17//80 72//80 73//80
f 20//81 17//81 73//81
f 20//82 73//82 74//82
f 21//83 74//83 75//83
f 21//84 20//84 74//84
f 24//85 75//85 76//85
f 24//86 21//86 75//86
f 25//87 76//87 77//87
f 25//88 24//88 76//88
f 27//89 77//89 78//89
f 27//90 78//90 79//90
f 27//91 25//91 77//91
f 29//92 27//92 79//92
f 31//93 29//93 79//93
f 31//94 79//94 80//94
f 33//95 80//95 81//95
f 33//96 31//96 80//96
f 35//97 81//97 82//97
f 35//98 33//98 81//98
f 37//99 82//99 83//99
f 37//100 35//100 82//100
f 39//101 83//101 84//101
f 39//102 37//102 83//102
f 41//103 84//103 85//103
f 41//104 39//104 84//104
f 44//105 85//105 86//105
f 44//106 86//106 87//106
f 44//107 41//107 85//107
f 45//108 44//108 87//108
f 47//109 87//109 88//109
f 47//110 45//110 87//110
f 49//111 88//111 89//111
f 49//112 47//112 88//112
f 51//113 89//113 90//113
f 51//114 90//114 91//114
f 51//115 49//115 89//115
f 54//116 51//116 91//116
f 55//117 91//117 92//117
f 55//118 54//118 91//118
f 58//119 92//119 93//119
f 58//120 55//120 92//120
f 60//121 93//121 94//121
f 60//122 58//122 93//122
f 61//123 94//123 95//123
f 61//124 60//124 94//124
f 63//125 95//125 96//125
f 63//126 61//126 95//126
f 1//127 96//127 65//127
f 1//128 63//128 96//128
f 97//129 98//129 99//129
f 100//130 97//130 42//130
f 100//131 42//131 101//131
f 102//132 100//132 103//132
f 104//133 105//133 106//133
f 104//134 106//134 107//134
f 108//135 109//135 110//135
f 57//136 107//136 111//136
f 57//137 111//137 112//137
f 57//138 112//138 113//138
f 57//139 113//139 114//139
f 57//140 114//140 115//140
f 57//141 115//141 116//141
f 57//142 116//142 117//142
f 57//143 117//143 118//143
f 57//144 118//144 119//144
f 57//145 119//145 120//145
f 57//146 120//146 121//146
f 57//147 121//147 122//147
f 57//148 122//148 123//148
f 57//149 123//149 124//149
f 57//150 124//150 125//150
f 57//151 125//151 126//151
f 57//152 126//152 98//152
f 57//153 102//153 109//153
f 57//154 98//154 97//154
f 57//155 97//155 100//155
f 57//156 100//156 102//156
f 57//157 104//157 107//157
f 57//158 109//158 108//158
f 82//159 85//159 83//159
f 83//160 85//160 84//160
f 69//161 68//161 70//161
f 86//162 89//162 87//162
f 87//163 89//163 88//163
f 85//164 92//164 86//164
f 89//165 92//165 90//165
f 90//166 92//166 91//166
f 86//167 92//167 89//167
f 127//168 93//168 66//168
f 66//169 93//169 67//169
f 67//170 93//170 68//170
f 70//171 93//171 71//171
f 71//172 93//172 72//172
f 72//173 93//173 73//173
f 73//174 93//174 74//174
f 74//175 93//175 75//175
f 75//176 93//176 76//176
f 76//177 93//177 77//177
f 77//178 93//178 78//178
f 78//179 93//179 79//179
f 79//180 93//180 80//180
f 80//181 93//181 81//181
f 81//182 93//182 82//182
f 94//183 93//183 95//183
f 95//184 93//184 96//184
f 96//185 93//185 127//185
f 82//186 93//186 85//186
f 68//187 93//187 70//187
f 85//188 93//188 92//188
